solid OpenSCAD_Model
  facet normal 0.866025 0.5 0
    outer loop
      vertex 15.5303 6.91452 2.5
      vertex 13.7533 9.99235 -2.5
      vertex 13.7533 9.99235 2.5
    endloop
  endfacet
  facet normal 0.866025 0.5 0
    outer loop
      vertex 13.7533 9.99235 -2.5
      vertex 15.5303 6.91452 2.5
      vertex 15.5303 6.91452 -2.5
    endloop
  endfacet
  facet normal 0.951056 0.309017 0
    outer loop
      vertex 16.6285 3.5345 2.5
      vertex 15.5303 6.91452 -2.5
      vertex 15.5303 6.91452 2.5
    endloop
  endfacet
  facet normal 0.951056 0.309017 0
    outer loop
      vertex 15.5303 6.91452 -2.5
      vertex 16.6285 3.5345 2.5
      vertex 16.6285 3.5345 -2.5
    endloop
  endfacet
  facet normal 0.406737 0.913545 -0
    outer loop
      vertex 8.5 14.7224 -2.5
      vertex 5.25329 16.168 2.5
      vertex 8.5 14.7224 2.5
    endloop
  endfacet
  facet normal 0.406737 0.913545 0
    outer loop
      vertex 5.25329 16.168 2.5
      vertex 8.5 14.7224 -2.5
      vertex 5.25329 16.168 -2.5
    endloop
  endfacet
  facet normal -0.207911 0.978148 0
    outer loop
      vertex -1.77698 16.9069 -2.5
      vertex -5.25329 16.168 2.5
      vertex -1.77698 16.9069 2.5
    endloop
  endfacet
  facet normal -0.207911 0.978148 0
    outer loop
      vertex -5.25329 16.168 2.5
      vertex -1.77698 16.9069 -2.5
      vertex -5.25329 16.168 -2.5
    endloop
  endfacet
  facet normal -0.866025 0.5 0
    outer loop
      vertex -15.5303 6.91452 -2.5
      vertex -13.7533 9.99235 2.5
      vertex -13.7533 9.99235 -2.5
    endloop
  endfacet
  facet normal -0.866025 0.5 0
    outer loop
      vertex -13.7533 9.99235 2.5
      vertex -15.5303 6.91452 -2.5
      vertex -15.5303 6.91452 2.5
    endloop
  endfacet
  facet normal 0.994522 -0.104528 0
    outer loop
      vertex 16.6285 -3.5345 2.5
      vertex 17 0 -2.5
      vertex 17 0 2.5
    endloop
  endfacet
  facet normal 0.994522 -0.104528 0
    outer loop
      vertex 17 0 -2.5
      vertex 16.6285 -3.5345 2.5
      vertex 16.6285 -3.5345 -2.5
    endloop
  endfacet
  facet normal 0.207911 -0.978148 0
    outer loop
      vertex 1.77698 -16.9069 -2.5
      vertex 5.25329 -16.168 2.5
      vertex 1.77698 -16.9069 2.5
    endloop
  endfacet
  facet normal 0.207911 -0.978148 0
    outer loop
      vertex 5.25329 -16.168 2.5
      vertex 1.77698 -16.9069 -2.5
      vertex 5.25329 -16.168 -2.5
    endloop
  endfacet
  facet normal 0.743145 0.66913 0
    outer loop
      vertex 13.7533 9.99235 2.5
      vertex 11.3752 12.6335 -2.5
      vertex 11.3752 12.6335 2.5
    endloop
  endfacet
  facet normal 0.743145 0.66913 0
    outer loop
      vertex 11.3752 12.6335 -2.5
      vertex 13.7533 9.99235 2.5
      vertex 13.7533 9.99235 -2.5
    endloop
  endfacet
  facet normal 0 1 -0
    outer loop
      vertex 1.77698 16.9069 -2.5
      vertex -1.77698 16.9069 2.5
      vertex 1.77698 16.9069 2.5
    endloop
  endfacet
  facet normal 0 1 0
    outer loop
      vertex -1.77698 16.9069 2.5
      vertex 1.77698 16.9069 -2.5
      vertex -1.77698 16.9069 -2.5
    endloop
  endfacet
  facet normal 0.587785 0.809017 -0
    outer loop
      vertex 11.3752 12.6335 -2.5
      vertex 8.5 14.7224 2.5
      vertex 11.3752 12.6335 2.5
    endloop
  endfacet
  facet normal 0.587785 0.809017 0
    outer loop
      vertex 8.5 14.7224 2.5
      vertex 11.3752 12.6335 -2.5
      vertex 8.5 14.7224 -2.5
    endloop
  endfacet
  facet normal -0.994522 0.104528 0
    outer loop
      vertex -17 0 -2.5
      vertex -16.6285 3.5345 2.5
      vertex -16.6285 3.5345 -2.5
    endloop
  endfacet
  facet normal -0.994522 0.104528 0
    outer loop
      vertex -16.6285 3.5345 2.5
      vertex -17 0 -2.5
      vertex -17 0 2.5
    endloop
  endfacet
  facet normal -0.743145 0.66913 0
    outer loop
      vertex -13.7533 9.99235 -2.5
      vertex -11.3752 12.6335 2.5
      vertex -11.3752 12.6335 -2.5
    endloop
  endfacet
  facet normal -0.743145 0.66913 0
    outer loop
      vertex -11.3752 12.6335 2.5
      vertex -13.7533 9.99235 -2.5
      vertex -13.7533 9.99235 2.5
    endloop
  endfacet
  facet normal -0.406737 0.913545 0
    outer loop
      vertex -5.25329 16.168 -2.5
      vertex -8.5 14.7224 2.5
      vertex -5.25329 16.168 2.5
    endloop
  endfacet
  facet normal -0.406737 0.913545 0
    outer loop
      vertex -8.5 14.7224 2.5
      vertex -5.25329 16.168 -2.5
      vertex -8.5 14.7224 -2.5
    endloop
  endfacet
  facet normal -0.587785 0.809017 0
    outer loop
      vertex -8.5 14.7224 -2.5
      vertex -11.3752 12.6335 2.5
      vertex -8.5 14.7224 2.5
    endloop
  endfacet
  facet normal -0.587785 0.809017 0
    outer loop
      vertex -11.3752 12.6335 2.5
      vertex -8.5 14.7224 -2.5
      vertex -11.3752 12.6335 -2.5
    endloop
  endfacet
  facet normal 0.994522 0.104528 0
    outer loop
      vertex 17 0 2.5
      vertex 16.6285 3.5345 -2.5
      vertex 16.6285 3.5345 2.5
    endloop
  endfacet
  facet normal 0.994522 0.104528 0
    outer loop
      vertex 16.6285 3.5345 -2.5
      vertex 17 0 2.5
      vertex 17 0 -2.5
    endloop
  endfacet
  facet normal -0.207911 -0.978148 0
    outer loop
      vertex -5.25329 -16.168 -2.5
      vertex -1.77698 -16.9069 2.5
      vertex -5.25329 -16.168 2.5
    endloop
  endfacet
  facet normal -0.207911 -0.978148 -0
    outer loop
      vertex -1.77698 -16.9069 2.5
      vertex -5.25329 -16.168 -2.5
      vertex -1.77698 -16.9069 -2.5
    endloop
  endfacet
  facet normal 0.587785 -0.809017 0
    outer loop
      vertex 8.5 -14.7224 -2.5
      vertex 11.3752 -12.6335 2.5
      vertex 8.5 -14.7224 2.5
    endloop
  endfacet
  facet normal 0.587785 -0.809017 0
    outer loop
      vertex 11.3752 -12.6335 2.5
      vertex 8.5 -14.7224 -2.5
      vertex 11.3752 -12.6335 -2.5
    endloop
  endfacet
  facet normal 0.207911 0.978148 -0
    outer loop
      vertex 5.25329 16.168 -2.5
      vertex 1.77698 16.9069 2.5
      vertex 5.25329 16.168 2.5
    endloop
  endfacet
  facet normal 0.207911 0.978148 0
    outer loop
      vertex 1.77698 16.9069 2.5
      vertex 5.25329 16.168 -2.5
      vertex 1.77698 16.9069 -2.5
    endloop
  endfacet
  facet normal 0 0 1
    outer loop
      vertex 4 4 2.5
      vertex 17 0 2.5
      vertex 16.6285 3.5345 2.5
    endloop
  endfacet
  facet normal -0 0 1
    outer loop
      vertex 4 4 2.5
      vertex 16.6285 3.5345 2.5
      vertex 15.5303 6.91452 2.5
    endloop
  endfacet
  facet normal 0 0 1
    outer loop
      vertex 4 -4 2.5
      vertex 17 0 2.5
      vertex 4 4 2.5
    endloop
  endfacet
  facet normal 0 0 1
    outer loop
      vertex 4 4 2.5
      vertex 15.5303 6.91452 2.5
      vertex 13.7533 9.99235 2.5
    endloop
  endfacet
  facet normal 0 0 1
    outer loop
      vertex 17 0 2.5
      vertex 4 -4 2.5
      vertex 16.6285 -3.5345 2.5
    endloop
  endfacet
  facet normal 0 0 1
    outer loop
      vertex 4 4 2.5
      vertex 13.7533 9.99235 2.5
      vertex 11.3752 12.6335 2.5
    endloop
  endfacet
  facet normal 0 0 1
    outer loop
      vertex 16.6285 -3.5345 2.5
      vertex 4 -4 2.5
      vertex 15.5303 -6.91452 2.5
    endloop
  endfacet
  facet normal 0 0 1
    outer loop
      vertex 4 4 2.5
      vertex 11.3752 12.6335 2.5
      vertex 8.5 14.7224 2.5
    endloop
  endfacet
  facet normal 0 0 1
    outer loop
      vertex 15.5303 -6.91452 2.5
      vertex 4 -4 2.5
      vertex 13.7533 -9.99235 2.5
    endloop
  endfacet
  facet normal 0 0 1
    outer loop
      vertex 4 4 2.5
      vertex 8.5 14.7224 2.5
      vertex 5.25329 16.168 2.5
    endloop
  endfacet
  facet normal 0 0 1
    outer loop
      vertex 13.7533 -9.99235 2.5
      vertex 4 -4 2.5
      vertex 11.3752 -12.6335 2.5
    endloop
  endfacet
  facet normal 0 0 1
    outer loop
      vertex 11.3752 -12.6335 2.5
      vertex 4 -4 2.5
      vertex 8.5 -14.7224 2.5
    endloop
  endfacet
  facet normal 0 0 1
    outer loop
      vertex 1.77698 16.9069 2.5
      vertex 4 4 2.5
      vertex 5.25329 16.168 2.5
    endloop
  endfacet
  facet normal -0 0 1
    outer loop
      vertex -1.77698 16.9069 2.5
      vertex 4 4 2.5
      vertex 1.77698 16.9069 2.5
    endloop
  endfacet
  facet normal 0 0 1
    outer loop
      vertex -1.77698 16.9069 2.5
      vertex -4 4 2.5
      vertex 4 4 2.5
    endloop
  endfacet
  facet normal -0 0 1
    outer loop
      vertex -8.5 14.7224 2.5
      vertex -4 4 2.5
      vertex -5.25329 16.168 2.5
    endloop
  endfacet
  facet normal -0 0 1
    outer loop
      vertex -5.25329 16.168 2.5
      vertex -4 4 2.5
      vertex -1.77698 16.9069 2.5
    endloop
  endfacet
  facet normal 0 0 1
    outer loop
      vertex 8.5 -14.7224 2.5
      vertex 4 -4 2.5
      vertex 5.25329 -16.168 2.5
    endloop
  endfacet
  facet normal 0 0 1
    outer loop
      vertex 4 -4 2.5
      vertex 1.77698 -16.9069 2.5
      vertex 5.25329 -16.168 2.5
    endloop
  endfacet
  facet normal 0 0 1
    outer loop
      vertex 4 -4 2.5
      vertex -1.77698 -16.9069 2.5
      vertex 1.77698 -16.9069 2.5
    endloop
  endfacet
  facet normal -0 0 1
    outer loop
      vertex -4 -4 2.5
      vertex -1.77698 -16.9069 2.5
      vertex 4 -4 2.5
    endloop
  endfacet
  facet normal 0 0 1
    outer loop
      vertex -4 -4 2.5
      vertex -5.25329 -16.168 2.5
      vertex -1.77698 -16.9069 2.5
    endloop
  endfacet
  facet normal -0 0 1
    outer loop
      vertex -11.3752 12.6335 2.5
      vertex -4 4 2.5
      vertex -8.5 14.7224 2.5
    endloop
  endfacet
  facet normal -0 0 1
    outer loop
      vertex -13.7533 9.99235 2.5
      vertex -4 4 2.5
      vertex -11.3752 12.6335 2.5
    endloop
  endfacet
  facet normal 0 0 1
    outer loop
      vertex -4 -4 2.5
      vertex -8.5 -14.7224 2.5
      vertex -5.25329 -16.168 2.5
    endloop
  endfacet
  facet normal -0 0 1
    outer loop
      vertex -15.5303 6.91452 2.5
      vertex -4 4 2.5
      vertex -13.7533 9.99235 2.5
    endloop
  endfacet
  facet normal 0 0 1
    outer loop
      vertex -4 -4 2.5
      vertex -11.3752 -12.6335 2.5
      vertex -8.5 -14.7224 2.5
    endloop
  endfacet
  facet normal 0 0 1
    outer loop
      vertex -16.6285 3.5345 2.5
      vertex -4 4 2.5
      vertex -15.5303 6.91452 2.5
    endloop
  endfacet
  facet normal 0 0 1
    outer loop
      vertex -4 -4 2.5
      vertex -13.7533 -9.99235 2.5
      vertex -11.3752 -12.6335 2.5
    endloop
  endfacet
  facet normal 0 0 1
    outer loop
      vertex -17 0 2.5
      vertex -4 4 2.5
      vertex -16.6285 3.5345 2.5
    endloop
  endfacet
  facet normal 0 0 1
    outer loop
      vertex -4 -4 2.5
      vertex -15.5303 -6.91452 2.5
      vertex -13.7533 -9.99235 2.5
    endloop
  endfacet
  facet normal 0 0 1
    outer loop
      vertex -4 4 2.5
      vertex -17 0 2.5
      vertex -4 -4 2.5
    endloop
  endfacet
  facet normal 0 0 1
    outer loop
      vertex -4 -4 2.5
      vertex -16.6285 -3.5345 2.5
      vertex -15.5303 -6.91452 2.5
    endloop
  endfacet
  facet normal 0 0 1
    outer loop
      vertex -4 -4 2.5
      vertex -17 0 2.5
      vertex -16.6285 -3.5345 2.5
    endloop
  endfacet
  facet normal -0.951056 0.309017 0
    outer loop
      vertex -16.6285 3.5345 -2.5
      vertex -15.5303 6.91452 2.5
      vertex -15.5303 6.91452 -2.5
    endloop
  endfacet
  facet normal -0.951056 0.309017 0
    outer loop
      vertex -15.5303 6.91452 2.5
      vertex -16.6285 3.5345 -2.5
      vertex -16.6285 3.5345 2.5
    endloop
  endfacet
  facet normal 0.951056 -0.309017 0
    outer loop
      vertex 15.5303 -6.91452 2.5
      vertex 16.6285 -3.5345 -2.5
      vertex 16.6285 -3.5345 2.5
    endloop
  endfacet
  facet normal 0.951056 -0.309017 0
    outer loop
      vertex 16.6285 -3.5345 -2.5
      vertex 15.5303 -6.91452 2.5
      vertex 15.5303 -6.91452 -2.5
    endloop
  endfacet
  facet normal 0.866025 -0.5 0
    outer loop
      vertex 13.7533 -9.99235 2.5
      vertex 15.5303 -6.91452 -2.5
      vertex 15.5303 -6.91452 2.5
    endloop
  endfacet
  facet normal 0.866025 -0.5 0
    outer loop
      vertex 15.5303 -6.91452 -2.5
      vertex 13.7533 -9.99235 2.5
      vertex 13.7533 -9.99235 -2.5
    endloop
  endfacet
  facet normal -0.994522 -0.104528 0
    outer loop
      vertex -16.6285 -3.5345 -2.5
      vertex -17 0 2.5
      vertex -17 0 -2.5
    endloop
  endfacet
  facet normal -0.994522 -0.104528 0
    outer loop
      vertex -17 0 2.5
      vertex -16.6285 -3.5345 -2.5
      vertex -16.6285 -3.5345 2.5
    endloop
  endfacet
  facet normal -0.866025 -0.5 0
    outer loop
      vertex -13.7533 -9.99235 -2.5
      vertex -15.5303 -6.91452 2.5
      vertex -15.5303 -6.91452 -2.5
    endloop
  endfacet
  facet normal -0.866025 -0.5 0
    outer loop
      vertex -15.5303 -6.91452 2.5
      vertex -13.7533 -9.99235 -2.5
      vertex -13.7533 -9.99235 2.5
    endloop
  endfacet
  facet normal 0.743145 -0.66913 0
    outer loop
      vertex 11.3752 -12.6335 2.5
      vertex 13.7533 -9.99235 -2.5
      vertex 13.7533 -9.99235 2.5
    endloop
  endfacet
  facet normal 0.743145 -0.66913 0
    outer loop
      vertex 13.7533 -9.99235 -2.5
      vertex 11.3752 -12.6335 2.5
      vertex 11.3752 -12.6335 -2.5
    endloop
  endfacet
  facet normal -0.587785 -0.809017 0
    outer loop
      vertex -11.3752 -12.6335 -2.5
      vertex -8.5 -14.7224 2.5
      vertex -11.3752 -12.6335 2.5
    endloop
  endfacet
  facet normal -0.587785 -0.809017 -0
    outer loop
      vertex -8.5 -14.7224 2.5
      vertex -11.3752 -12.6335 -2.5
      vertex -8.5 -14.7224 -2.5
    endloop
  endfacet
  facet normal 0 -1 0
    outer loop
      vertex -1.77698 -16.9069 -2.5
      vertex 1.77698 -16.9069 2.5
      vertex -1.77698 -16.9069 2.5
    endloop
  endfacet
  facet normal 0 -1 -0
    outer loop
      vertex 1.77698 -16.9069 2.5
      vertex -1.77698 -16.9069 -2.5
      vertex 1.77698 -16.9069 -2.5
    endloop
  endfacet
  facet normal 0 0 -1
    outer loop
      vertex 1.47291 5.8164 -2.5
      vertex 0.309016 7.04894 -2.5
      vertex 1 8 -2.5
    endloop
  endfacet
  facet normal 0 0 -1
    outer loop
      vertex -0.495476 5.97951 -2.5
      vertex 0.309016 7.04894 -2.5
      vertex 1.47291 5.8164 -2.5
    endloop
  endfacet
  facet normal 0 0 -1
    outer loop
      vertex -0.495476 5.97951 -2.5
      vertex -0.809016 7.41221 -2.5
      vertex 0.309016 7.04894 -2.5
    endloop
  endfacet
  facet normal 0 0 -1
    outer loop
      vertex -2.41017 5.49464 -2.5
      vertex -0.809016 8.58778 -2.5
      vertex -0.809016 7.41221 -2.5
    endloop
  endfacet
  facet normal 0 0 -1
    outer loop
      vertex -2.41017 5.49464 -2.5
      vertex -0.809016 7.41221 -2.5
      vertex -0.495476 5.97951 -2.5
    endloop
  endfacet
  facet normal 0 0 -1
    outer loop
      vertex -4.06369 4.41434 -2.5
      vertex -0.809016 8.58778 -2.5
      vertex -2.41017 5.49464 -2.5
    endloop
  endfacet
  facet normal -0 0 -1
    outer loop
      vertex -0.809016 8.58778 -2.5
      vertex -4.06369 4.41434 -2.5
      vertex -8.5 14.7224 -2.5
    endloop
  endfacet
  facet normal 0 0 -1
    outer loop
      vertex -0.809016 8.58778 -2.5
      vertex -5.25329 16.168 -2.5
      vertex -1.77698 16.9069 -2.5
    endloop
  endfacet
  facet normal 0 0 -1
    outer loop
      vertex -13.7533 9.99235 -2.5
      vertex -4.06369 4.41434 -2.5
      vertex -5.27684 2.85568 -2.5
    endloop
  endfacet
  facet normal 0 0 -1
    outer loop
      vertex -7.69098 0.951056 -2.5
      vertex -5.27684 2.85568 -2.5
      vertex -5.91817 0.987567 -2.5
    endloop
  endfacet
  facet normal 0 0 -1
    outer loop
      vertex -7.69098 0.951056 -2.5
      vertex -5.91817 0.987567 -2.5
      vertex -7 0 -2.5
    endloop
  endfacet
  facet normal 0 0 -1
    outer loop
      vertex -13.7533 9.99235 -2.5
      vertex -5.27684 2.85568 -2.5
      vertex -7.69098 0.951056 -2.5
    endloop
  endfacet
  facet normal 0 0 -1
    outer loop
      vertex -0.809016 8.58778 -2.5
      vertex -8.5 14.7224 -2.5
      vertex -5.25329 16.168 -2.5
    endloop
  endfacet
  facet normal 0 0 -1
    outer loop
      vertex -13.7533 9.99235 -2.5
      vertex -7.69098 0.951056 -2.5
      vertex -8.80902 0.587785 -2.5
    endloop
  endfacet
  facet normal 0 0 -1
    outer loop
      vertex -15.5303 -6.91452 -2.5
      vertex -8.80902 -0.587785 -2.5
      vertex -13.7533 -9.99235 -2.5
    endloop
  endfacet
  facet normal 0 0 -1
    outer loop
      vertex -4.06369 4.41434 -2.5
      vertex -11.3752 12.6335 -2.5
      vertex -8.5 14.7224 -2.5
    endloop
  endfacet
  facet normal 0 0 -1
    outer loop
      vertex -16.6285 -3.5345 -2.5
      vertex -8.80902 -0.587785 -2.5
      vertex -15.5303 -6.91452 -2.5
    endloop
  endfacet
  facet normal 0 0 -1
    outer loop
      vertex -4.06369 4.41434 -2.5
      vertex -13.7533 9.99235 -2.5
      vertex -11.3752 12.6335 -2.5
    endloop
  endfacet
  facet normal 0 0 -1
    outer loop
      vertex -17 0 -2.5
      vertex -8.80902 -0.587785 -2.5
      vertex -16.6285 -3.5345 -2.5
    endloop
  endfacet
  facet normal 0 0 -1
    outer loop
      vertex -8.80902 0.587785 -2.5
      vertex -15.5303 6.91452 -2.5
      vertex -13.7533 9.99235 -2.5
    endloop
  endfacet
  facet normal 0 0 -1
    outer loop
      vertex -8.80902 -0.587785 -2.5
      vertex -17 0 -2.5
      vertex -8.80902 0.587785 -2.5
    endloop
  endfacet
  facet normal 0 0 -1
    outer loop
      vertex -8.80902 0.587785 -2.5
      vertex -16.6285 3.5345 -2.5
      vertex -15.5303 6.91452 -2.5
    endloop
  endfacet
  facet normal -0 0 -1
    outer loop
      vertex -8.80902 0.587785 -2.5
      vertex -17 0 -2.5
      vertex -16.6285 3.5345 -2.5
    endloop
  endfacet
  facet normal 0 0 -1
    outer loop
      vertex 9 0 -2.5
      vertex 17 0 -2.5
      vertex 16.6285 -3.5345 -2.5
    endloop
  endfacet
  facet normal 0 0 -1
    outer loop
      vertex 8.30902 -0.951056 -2.5
      vertex 16.6285 -3.5345 -2.5
      vertex 15.5303 -6.91452 -2.5
    endloop
  endfacet
  facet normal 0 0 -1
    outer loop
      vertex 17 0 -2.5
      vertex 9 0 -2.5
      vertex 16.6285 3.5345 -2.5
    endloop
  endfacet
  facet normal 0 0 -1
    outer loop
      vertex 8.30902 -0.951056 -2.5
      vertex 15.5303 -6.91452 -2.5
      vertex 13.7533 -9.99235 -2.5
    endloop
  endfacet
  facet normal 0 0 -1
    outer loop
      vertex 8.30902 0.951056 -2.5
      vertex 16.6285 3.5345 -2.5
      vertex 9 0 -2.5
    endloop
  endfacet
  facet normal 0 0 -1
    outer loop
      vertex 4.73484 -3.68528 -2.5
      vertex 13.7533 -9.99235 -2.5
      vertex 11.3752 -12.6335 -2.5
    endloop
  endfacet
  facet normal -0 0 -1
    outer loop
      vertex 16.6285 3.5345 -2.5
      vertex 8.30902 0.951056 -2.5
      vertex 15.5303 6.91452 -2.5
    endloop
  endfacet
  facet normal -0 0 -1
    outer loop
      vertex 15.5303 6.91452 -2.5
      vertex 8.30902 0.951056 -2.5
      vertex 13.7533 9.99235 -2.5
    endloop
  endfacet
  facet normal 0 0 -1
    outer loop
      vertex 3.28169 -5.023 -2.5
      vertex 11.3752 -12.6335 -2.5
      vertex 8.5 -14.7224 -2.5
    endloop
  endfacet
  facet normal 0 0 -1
    outer loop
      vertex 16.6285 -3.5345 -2.5
      vertex 8.30902 -0.951056 -2.5
      vertex 9 0 -2.5
    endloop
  endfacet
  facet normal 0 0 -1
    outer loop
      vertex 13.7533 -9.99235 -2.5
      vertex 4.73484 -3.68528 -2.5
      vertex 8.30902 -0.951056 -2.5
    endloop
  endfacet
  facet normal 0 0 -1
    outer loop
      vertex 7.19098 -0.587785 -2.5
      vertex 6 0 -2.5
      vertex 7.19098 0.587785 -2.5
    endloop
  endfacet
  facet normal 0 -0 -1
    outer loop
      vertex 5.6749 -1.9482 -2.5
      vertex 8.30902 -0.951056 -2.5
      vertex 4.73484 -3.68528 -2.5
    endloop
  endfacet
  facet normal -0 0 -1
    outer loop
      vertex 7.19098 -0.587785 -2.5
      vertex 5.6749 -1.9482 -2.5
      vertex 6 0 -2.5
    endloop
  endfacet
  facet normal 0 0 -1
    outer loop
      vertex 1 -8 -2.5
      vertex 8.5 -14.7224 -2.5
      vertex 5.25329 -16.168 -2.5
    endloop
  endfacet
  facet normal -0 0 -1
    outer loop
      vertex 8.30902 -0.951056 -2.5
      vertex 5.6749 -1.9482 -2.5
      vertex 7.19098 -0.587785 -2.5
    endloop
  endfacet
  facet normal 0 0 -1
    outer loop
      vertex 11.3752 -12.6335 -2.5
      vertex 3.28169 -5.023 -2.5
      vertex 4.73484 -3.68528 -2.5
    endloop
  endfacet
  facet normal 0 0 -1
    outer loop
      vertex 0.309016 -8.95106 -2.5
      vertex 5.25329 -16.168 -2.5
      vertex 1.77698 -16.9069 -2.5
    endloop
  endfacet
  facet normal 0 0 -1
    outer loop
      vertex 8.5 -14.7224 -2.5
      vertex 1 -8 -2.5
      vertex 3.28169 -5.023 -2.5
    endloop
  endfacet
  facet normal 0 0 -1
    outer loop
      vertex 3.28169 -5.023 -2.5
      vertex 1 -8 -2.5
      vertex 1.47291 -5.8164 -2.5
    endloop
  endfacet
  facet normal 0 0 -1
    outer loop
      vertex 5.25329 -16.168 -2.5
      vertex 0.309016 -8.95106 -2.5
      vertex 1 -8 -2.5
    endloop
  endfacet
  facet normal 0 0 -1
    outer loop
      vertex -1.77698 -16.9069 -2.5
      vertex 0.309016 -8.95106 -2.5
      vertex 1.77698 -16.9069 -2.5
    endloop
  endfacet
  facet normal 0 0 -1
    outer loop
      vertex -5.25329 -16.168 -2.5
      vertex -0.809016 -8.58778 -2.5
      vertex -1.77698 -16.9069 -2.5
    endloop
  endfacet
  facet normal -0 0 -1
    outer loop
      vertex 0.309016 -8.95106 -2.5
      vertex -1.77698 -16.9069 -2.5
      vertex -0.809016 -8.58778 -2.5
    endloop
  endfacet
  facet normal 0 0 -1
    outer loop
      vertex 4.73484 3.68528 -2.5
      vertex 13.7533 9.99235 -2.5
      vertex 8.30902 0.951056 -2.5
    endloop
  endfacet
  facet normal -0 0 -1
    outer loop
      vertex 13.7533 9.99235 -2.5
      vertex 4.73484 3.68528 -2.5
      vertex 11.3752 12.6335 -2.5
    endloop
  endfacet
  facet normal 0 0 -1
    outer loop
      vertex 5.6749 1.9482 -2.5
      vertex 8.30902 0.951056 -2.5
      vertex 7.19098 0.587785 -2.5
    endloop
  endfacet
  facet normal 0 0 -1
    outer loop
      vertex 5.6749 1.9482 -2.5
      vertex 7.19098 0.587785 -2.5
      vertex 6 0 -2.5
    endloop
  endfacet
  facet normal 0 0 -1
    outer loop
      vertex 8.30902 0.951056 -2.5
      vertex 5.6749 1.9482 -2.5
      vertex 4.73484 3.68528 -2.5
    endloop
  endfacet
  facet normal 0 0 -1
    outer loop
      vertex 3.28169 5.023 -2.5
      vertex 11.3752 12.6335 -2.5
      vertex 4.73484 3.68528 -2.5
    endloop
  endfacet
  facet normal -0 0 -1
    outer loop
      vertex 11.3752 12.6335 -2.5
      vertex 3.28169 5.023 -2.5
      vertex 8.5 14.7224 -2.5
    endloop
  endfacet
  facet normal 0 0 -1
    outer loop
      vertex 1 8 -2.5
      vertex 8.5 14.7224 -2.5
      vertex 3.28169 5.023 -2.5
    endloop
  endfacet
  facet normal -0 0 -1
    outer loop
      vertex 8.5 14.7224 -2.5
      vertex 1 8 -2.5
      vertex 5.25329 16.168 -2.5
    endloop
  endfacet
  facet normal 0 0 -1
    outer loop
      vertex 1 8 -2.5
      vertex 3.28169 5.023 -2.5
      vertex 1.47291 5.8164 -2.5
    endloop
  endfacet
  facet normal 0 0 -1
    outer loop
      vertex 0.309016 8.95106 -2.5
      vertex 5.25329 16.168 -2.5
      vertex 1 8 -2.5
    endloop
  endfacet
  facet normal -0 0 -1
    outer loop
      vertex 5.25329 16.168 -2.5
      vertex 0.309016 8.95106 -2.5
      vertex 1.77698 16.9069 -2.5
    endloop
  endfacet
  facet normal 0 0 -1
    outer loop
      vertex -1.77698 16.9069 -2.5
      vertex 0.309016 8.95106 -2.5
      vertex -0.809016 8.58778 -2.5
    endloop
  endfacet
  facet normal 0 0 -1
    outer loop
      vertex 0.309016 8.95106 -2.5
      vertex -1.77698 16.9069 -2.5
      vertex 1.77698 16.9069 -2.5
    endloop
  endfacet
  facet normal 0 0 -1
    outer loop
      vertex 0.309016 -7.04894 -2.5
      vertex 1.47291 -5.8164 -2.5
      vertex 1 -8 -2.5
    endloop
  endfacet
  facet normal 0 0 -1
    outer loop
      vertex 0.309016 -7.04894 -2.5
      vertex -0.495476 -5.97951 -2.5
      vertex 1.47291 -5.8164 -2.5
    endloop
  endfacet
  facet normal 0 0 -1
    outer loop
      vertex -0.809016 -7.41221 -2.5
      vertex -0.495476 -5.97951 -2.5
      vertex 0.309016 -7.04894 -2.5
    endloop
  endfacet
  facet normal 0 0 -1
    outer loop
      vertex -0.809016 -7.41221 -2.5
      vertex -2.41017 -5.49464 -2.5
      vertex -0.495476 -5.97951 -2.5
    endloop
  endfacet
  facet normal 0 0 -1
    outer loop
      vertex -8.5 -14.7224 -2.5
      vertex -0.809016 -8.58778 -2.5
      vertex -5.25329 -16.168 -2.5
    endloop
  endfacet
  facet normal 0 -0 -1
    outer loop
      vertex -4.06369 -4.41434 -2.5
      vertex -0.809016 -8.58778 -2.5
      vertex -8.5 -14.7224 -2.5
    endloop
  endfacet
  facet normal 0 0 -1
    outer loop
      vertex -0.809016 -8.58778 -2.5
      vertex -2.41017 -5.49464 -2.5
      vertex -0.809016 -7.41221 -2.5
    endloop
  endfacet
  facet normal 0 0 -1
    outer loop
      vertex -0.809016 -8.58778 -2.5
      vertex -4.06369 -4.41434 -2.5
      vertex -2.41017 -5.49464 -2.5
    endloop
  endfacet
  facet normal 0 0 -1
    outer loop
      vertex -11.3752 -12.6335 -2.5
      vertex -4.06369 -4.41434 -2.5
      vertex -8.5 -14.7224 -2.5
    endloop
  endfacet
  facet normal 0 0 -1
    outer loop
      vertex -5.91817 -0.987567 -2.5
      vertex -7 0 -2.5
      vertex -5.91817 0.987567 -2.5
    endloop
  endfacet
  facet normal 0 0 -1
    outer loop
      vertex -13.7533 -9.99235 -2.5
      vertex -4.06369 -4.41434 -2.5
      vertex -11.3752 -12.6335 -2.5
    endloop
  endfacet
  facet normal 0 0 -1
    outer loop
      vertex -5.91817 -0.987567 -2.5
      vertex -7.69098 -0.951056 -2.5
      vertex -7 0 -2.5
    endloop
  endfacet
  facet normal -0 0 -1
    outer loop
      vertex -4.06369 -4.41434 -2.5
      vertex -13.7533 -9.99235 -2.5
      vertex -5.27684 -2.85568 -2.5
    endloop
  endfacet
  facet normal 0 0 -1
    outer loop
      vertex -5.27684 -2.85568 -2.5
      vertex -7.69098 -0.951056 -2.5
      vertex -5.91817 -0.987567 -2.5
    endloop
  endfacet
  facet normal -0 0 -1
    outer loop
      vertex -7.69098 -0.951056 -2.5
      vertex -13.7533 -9.99235 -2.5
      vertex -8.80902 -0.587785 -2.5
    endloop
  endfacet
  facet normal -0 0 -1
    outer loop
      vertex -5.27684 -2.85568 -2.5
      vertex -13.7533 -9.99235 -2.5
      vertex -7.69098 -0.951056 -2.5
    endloop
  endfacet
  facet normal -0.951056 -0.309017 0
    outer loop
      vertex -15.5303 -6.91452 -2.5
      vertex -16.6285 -3.5345 2.5
      vertex -16.6285 -3.5345 -2.5
    endloop
  endfacet
  facet normal -0.951056 -0.309017 0
    outer loop
      vertex -16.6285 -3.5345 2.5
      vertex -15.5303 -6.91452 -2.5
      vertex -15.5303 -6.91452 2.5
    endloop
  endfacet
  facet normal -0.743145 -0.66913 0
    outer loop
      vertex -11.3752 -12.6335 -2.5
      vertex -13.7533 -9.99235 2.5
      vertex -13.7533 -9.99235 -2.5
    endloop
  endfacet
  facet normal -0.743145 -0.66913 0
    outer loop
      vertex -13.7533 -9.99235 2.5
      vertex -11.3752 -12.6335 -2.5
      vertex -11.3752 -12.6335 2.5
    endloop
  endfacet
  facet normal 0.406737 -0.913545 0
    outer loop
      vertex 5.25329 -16.168 -2.5
      vertex 8.5 -14.7224 2.5
      vertex 5.25329 -16.168 2.5
    endloop
  endfacet
  facet normal 0.406737 -0.913545 0
    outer loop
      vertex 8.5 -14.7224 2.5
      vertex 5.25329 -16.168 -2.5
      vertex 8.5 -14.7224 -2.5
    endloop
  endfacet
  facet normal -0.406737 -0.913545 0
    outer loop
      vertex -8.5 -14.7224 -2.5
      vertex -5.25329 -16.168 2.5
      vertex -8.5 -14.7224 2.5
    endloop
  endfacet
  facet normal -0.406737 -0.913545 -0
    outer loop
      vertex -5.25329 -16.168 2.5
      vertex -8.5 -14.7224 -2.5
      vertex -5.25329 -16.168 -2.5
    endloop
  endfacet
  facet normal 1 0 0
    outer loop
      vertex -4 4 2.5
      vertex -4 1 2
      vertex -4 4 -1.16667
    endloop
  endfacet
  facet normal 1 0 0
    outer loop
      vertex -4 4 2.5
      vertex -4 -1 2
      vertex -4 1 2
    endloop
  endfacet
  facet normal 1 0 0
    outer loop
      vertex -4 -4 -1.16667
      vertex -4 -1 2
      vertex -4 -4 2.5
    endloop
  endfacet
  facet normal 1 -0 0
    outer loop
      vertex -4 -4 2.5
      vertex -4 -1 2
      vertex -4 4 2.5
    endloop
  endfacet
  facet normal 1 -0 0
    outer loop
      vertex -4 1 -1
      vertex -4 4 -1.16667
      vertex -4 1 2
    endloop
  endfacet
  facet normal 1 -0 0
    outer loop
      vertex -4 -1 -1
      vertex -4 4 -1.16667
      vertex -4 1 -1
    endloop
  endfacet
  facet normal 1 0 0
    outer loop
      vertex -4 -1 -1
      vertex -4 -4 -1.16667
      vertex -4 4 -1.16667
    endloop
  endfacet
  facet normal 1 0 0
    outer loop
      vertex -4 -1 2
      vertex -4 -4 -1.16667
      vertex -4 -1 -1
    endloop
  endfacet
  facet normal -1 0 0
    outer loop
      vertex 4 1 2
      vertex 4 4 -1.16667
      vertex 4 1 -1
    endloop
  endfacet
  facet normal -1 0 0
    outer loop
      vertex 4 4 -1.16667
      vertex 4 -1 -1
      vertex 4 1 -1
    endloop
  endfacet
  facet normal -1 -0 0
    outer loop
      vertex 4 -1 -1
      vertex 4 -4 -1.16667
      vertex 4 -1 2
    endloop
  endfacet
  facet normal -1 0 0
    outer loop
      vertex 4 -4 -1.16667
      vertex 4 -1 -1
      vertex 4 4 -1.16667
    endloop
  endfacet
  facet normal -1 0 0
    outer loop
      vertex 4 4 -1.16667
      vertex 4 1 2
      vertex 4 4 2.5
    endloop
  endfacet
  facet normal -1 0 0
    outer loop
      vertex 4 -1 2
      vertex 4 4 2.5
      vertex 4 1 2
    endloop
  endfacet
  facet normal -1 0 0
    outer loop
      vertex 4 -1 2
      vertex 4 -4 2.5
      vertex 4 4 2.5
    endloop
  endfacet
  facet normal -1 0 0
    outer loop
      vertex 4 -4 2.5
      vertex 4 -1 2
      vertex 4 -4 -1.16667
    endloop
  endfacet
  facet normal 0 1 -0
    outer loop
      vertex 4 -4 -1.16667
      vertex -4 -4 2.5
      vertex 4 -4 2.5
    endloop
  endfacet
  facet normal 0 1 0
    outer loop
      vertex -4 -4 2.5
      vertex 4 -4 -1.16667
      vertex -4 -4 -1.16667
    endloop
  endfacet
  facet normal 0 -1 0
    outer loop
      vertex -4 4 -1.16667
      vertex 4 4 2.5
      vertex -4 4 2.5
    endloop
  endfacet
  facet normal 0 -1 -0
    outer loop
      vertex 4 4 2.5
      vertex -4 4 -1.16667
      vertex 4 4 -1.16667
    endloop
  endfacet
  facet normal -0.986361 -0.164595 0
    outer loop
      vertex 6 0 -2.5
      vertex 5.6749 1.9482 -1.16667
      vertex 5.6749 1.9482 -2.5
    endloop
  endfacet
  facet normal -0.986361 -0.164595 0
    outer loop
      vertex 5.6749 1.9482 -1.16667
      vertex 6 0 -2.5
      vertex 6 0 -1.16667
    endloop
  endfacet
  facet normal 1 -0 0
    outer loop
      vertex -5.91817 -0.987567 -1.16667
      vertex -5.91817 0.987567 -2.5
      vertex -5.91817 0.987567 -1.16667
    endloop
  endfacet
  facet normal 1 0 0
    outer loop
      vertex -5.91817 0.987567 -2.5
      vertex -5.91817 -0.987567 -1.16667
      vertex -5.91817 -0.987567 -2.5
    endloop
  endfacet
  facet normal -0.0825792 -0.996585 0
    outer loop
      vertex -0.495476 5.97951 -2.5
      vertex 1.47291 5.8164 -1.16667
      vertex -0.495476 5.97951 -1.16667
    endloop
  endfacet
  facet normal -0.0825792 -0.996585 -0
    outer loop
      vertex 1.47291 5.8164 -1.16667
      vertex -0.495476 5.97951 -2.5
      vertex 1.47291 5.8164 -2.5
    endloop
  endfacet
  facet normal -0.401695 0.915773 0
    outer loop
      vertex 3.28169 -5.023 -2.5
      vertex 1.47291 -5.8164 -1.16667
      vertex 3.28169 -5.023 -1.16667
    endloop
  endfacet
  facet normal -0.401695 0.915773 0
    outer loop
      vertex 1.47291 -5.8164 -1.16667
      vertex 3.28169 -5.023 -2.5
      vertex 1.47291 -5.8164 -2.5
    endloop
  endfacet
  facet normal -0.677282 -0.735724 0
    outer loop
      vertex 3.28169 5.023 -2.5
      vertex 4.73484 3.68528 -1.16667
      vertex 3.28169 5.023 -1.16667
    endloop
  endfacet
  facet normal -0.677282 -0.735724 -0
    outer loop
      vertex 4.73484 3.68528 -1.16667
      vertex 3.28169 5.023 -2.5
      vertex 4.73484 3.68528 -2.5
    endloop
  endfacet
  facet normal -0.879474 -0.475947 0
    outer loop
      vertex 5.6749 1.9482 -2.5
      vertex 4.73484 3.68528 -1.16667
      vertex 4.73484 3.68528 -2.5
    endloop
  endfacet
  facet normal -0.879474 -0.475947 0
    outer loop
      vertex 4.73484 3.68528 -1.16667
      vertex 5.6749 1.9482 -2.5
      vertex 5.6749 1.9482 -1.16667
    endloop
  endfacet
  facet normal -0.401695 -0.915773 0
    outer loop
      vertex 1.47291 5.8164 -2.5
      vertex 3.28169 5.023 -1.16667
      vertex 1.47291 5.8164 -1.16667
    endloop
  endfacet
  facet normal -0.401695 -0.915773 -0
    outer loop
      vertex 3.28169 5.023 -1.16667
      vertex 1.47291 5.8164 -2.5
      vertex 3.28169 5.023 -2.5
    endloop
  endfacet
  facet normal 0.78914 -0.614213 0
    outer loop
      vertex -5.27684 2.85568 -1.16667
      vertex -4.06369 4.41434 -2.5
      vertex -4.06369 4.41434 -1.16667
    endloop
  endfacet
  facet normal 0.78914 -0.614213 0
    outer loop
      vertex -4.06369 4.41434 -2.5
      vertex -5.27684 2.85568 -1.16667
      vertex -5.27684 2.85568 -2.5
    endloop
  endfacet
  facet normal 0.945817 -0.324699 0
    outer loop
      vertex -5.91817 0.987567 -1.16667
      vertex -5.27684 2.85568 -2.5
      vertex -5.27684 2.85568 -1.16667
    endloop
  endfacet
  facet normal 0.945817 -0.324699 0
    outer loop
      vertex -5.27684 2.85568 -2.5
      vertex -5.91817 0.987567 -1.16667
      vertex -5.91817 0.987567 -2.5
    endloop
  endfacet
  facet normal 0 0 -1
    outer loop
      vertex 4 -4 -1.16667
      vertex 6 0 -1.16667
      vertex 5.6749 -1.9482 -1.16667
    endloop
  endfacet
  facet normal 0 0 -1
    outer loop
      vertex 4 -4 -1.16667
      vertex 5.6749 -1.9482 -1.16667
      vertex 4.73484 -3.68528 -1.16667
    endloop
  endfacet
  facet normal 0 0 -1
    outer loop
      vertex 4 4 -1.16667
      vertex 6 0 -1.16667
      vertex 4 -4 -1.16667
    endloop
  endfacet
  facet normal 0 0 -1
    outer loop
      vertex 6 0 -1.16667
      vertex 4 4 -1.16667
      vertex 5.6749 1.9482 -1.16667
    endloop
  endfacet
  facet normal 0 0 -1
    outer loop
      vertex 3.28169 -5.023 -1.16667
      vertex 4 -4 -1.16667
      vertex 4.73484 -3.68528 -1.16667
    endloop
  endfacet
  facet normal 0 0 -1
    outer loop
      vertex 1.47291 -5.8164 -1.16667
      vertex 4 -4 -1.16667
      vertex 3.28169 -5.023 -1.16667
    endloop
  endfacet
  facet normal 0 0 -1
    outer loop
      vertex -0.495476 -5.97951 -1.16667
      vertex 4 -4 -1.16667
      vertex 1.47291 -5.8164 -1.16667
    endloop
  endfacet
  facet normal 0 0 -1
    outer loop
      vertex -4 -4 -1.16667
      vertex -0.495476 -5.97951 -1.16667
      vertex -2.41017 -5.49464 -1.16667
    endloop
  endfacet
  facet normal 0 0 -1
    outer loop
      vertex -0.495476 -5.97951 -1.16667
      vertex -4 -4 -1.16667
      vertex 4 -4 -1.16667
    endloop
  endfacet
  facet normal 0 0 -1
    outer loop
      vertex -5.27684 -2.85568 -1.16667
      vertex -4 -4 -1.16667
      vertex -4.06369 -4.41434 -1.16667
    endloop
  endfacet
  facet normal 0 0 -1
    outer loop
      vertex -4.06369 -4.41434 -1.16667
      vertex -4 -4 -1.16667
      vertex -2.41017 -5.49464 -1.16667
    endloop
  endfacet
  facet normal 0 0 -1
    outer loop
      vertex 5.6749 1.9482 -1.16667
      vertex 4 4 -1.16667
      vertex 4.73484 3.68528 -1.16667
    endloop
  endfacet
  facet normal 0 0 -1
    outer loop
      vertex 4 4 -1.16667
      vertex 3.28169 5.023 -1.16667
      vertex 4.73484 3.68528 -1.16667
    endloop
  endfacet
  facet normal 0 0 -1
    outer loop
      vertex 4 4 -1.16667
      vertex 1.47291 5.8164 -1.16667
      vertex 3.28169 5.023 -1.16667
    endloop
  endfacet
  facet normal 0 0 -1
    outer loop
      vertex 4 4 -1.16667
      vertex -0.495476 5.97951 -1.16667
      vertex 1.47291 5.8164 -1.16667
    endloop
  endfacet
  facet normal 0 0 -1
    outer loop
      vertex -4 4 -1.16667
      vertex -0.495476 5.97951 -1.16667
      vertex 4 4 -1.16667
    endloop
  endfacet
  facet normal 0 0 -1
    outer loop
      vertex -0.495476 5.97951 -1.16667
      vertex -4 4 -1.16667
      vertex -2.41017 5.49464 -1.16667
    endloop
  endfacet
  facet normal 0 0 -1
    outer loop
      vertex -4 4 -1.16667
      vertex -4.06369 4.41434 -1.16667
      vertex -2.41017 5.49464 -1.16667
    endloop
  endfacet
  facet normal 0 0 -1
    outer loop
      vertex -5.91817 -0.987567 -1.16667
      vertex -4 -4 -1.16667
      vertex -5.27684 -2.85568 -1.16667
    endloop
  endfacet
  facet normal 0 0 -1
    outer loop
      vertex -4 -4 -1.16667
      vertex -5.91817 -0.987567 -1.16667
      vertex -4 4 -1.16667
    endloop
  endfacet
  facet normal -0 0 -1
    outer loop
      vertex -4 4 -1.16667
      vertex -5.27684 2.85568 -1.16667
      vertex -4.06369 4.41434 -1.16667
    endloop
  endfacet
  facet normal 0 0 -1
    outer loop
      vertex -5.91817 0.987567 -1.16667
      vertex -4 4 -1.16667
      vertex -5.91817 -0.987567 -1.16667
    endloop
  endfacet
  facet normal 0 0 -1
    outer loop
      vertex -4 4 -1.16667
      vertex -5.91817 0.987567 -1.16667
      vertex -5.27684 2.85568 -1.16667
    endloop
  endfacet
  facet normal 0.245486 -0.9694 0
    outer loop
      vertex -2.41017 5.49464 -2.5
      vertex -0.495476 5.97951 -1.16667
      vertex -2.41017 5.49464 -1.16667
    endloop
  endfacet
  facet normal 0.245486 -0.9694 0
    outer loop
      vertex -0.495476 5.97951 -1.16667
      vertex -2.41017 5.49464 -2.5
      vertex -0.495476 5.97951 -2.5
    endloop
  endfacet
  facet normal -0.986361 0.164595 0
    outer loop
      vertex 5.6749 -1.9482 -2.5
      vertex 6 0 -1.16667
      vertex 6 0 -2.5
    endloop
  endfacet
  facet normal -0.986361 0.164595 0
    outer loop
      vertex 6 0 -1.16667
      vertex 5.6749 -1.9482 -2.5
      vertex 5.6749 -1.9482 -1.16667
    endloop
  endfacet
  facet normal 0.546948 0.837166 -0
    outer loop
      vertex -2.41017 -5.49464 -2.5
      vertex -4.06369 -4.41434 -1.16667
      vertex -2.41017 -5.49464 -1.16667
    endloop
  endfacet
  facet normal 0.546948 0.837166 0
    outer loop
      vertex -4.06369 -4.41434 -1.16667
      vertex -2.41017 -5.49464 -2.5
      vertex -4.06369 -4.41434 -2.5
    endloop
  endfacet
  facet normal 0.945817 0.324699 0
    outer loop
      vertex -5.27684 -2.85568 -1.16667
      vertex -5.91817 -0.987567 -2.5
      vertex -5.91817 -0.987567 -1.16667
    endloop
  endfacet
  facet normal 0.945817 0.324699 0
    outer loop
      vertex -5.91817 -0.987567 -2.5
      vertex -5.27684 -2.85568 -1.16667
      vertex -5.27684 -2.85568 -2.5
    endloop
  endfacet
  facet normal 0.546948 -0.837166 0
    outer loop
      vertex -4.06369 4.41434 -2.5
      vertex -2.41017 5.49464 -1.16667
      vertex -4.06369 4.41434 -1.16667
    endloop
  endfacet
  facet normal 0.546948 -0.837166 0
    outer loop
      vertex -2.41017 5.49464 -1.16667
      vertex -4.06369 4.41434 -2.5
      vertex -2.41017 5.49464 -2.5
    endloop
  endfacet
  facet normal 0.245486 0.9694 -0
    outer loop
      vertex -0.495476 -5.97951 -2.5
      vertex -2.41017 -5.49464 -1.16667
      vertex -0.495476 -5.97951 -1.16667
    endloop
  endfacet
  facet normal 0.245486 0.9694 0
    outer loop
      vertex -2.41017 -5.49464 -1.16667
      vertex -0.495476 -5.97951 -2.5
      vertex -2.41017 -5.49464 -2.5
    endloop
  endfacet
  facet normal 0.78914 0.614213 0
    outer loop
      vertex -4.06369 -4.41434 -1.16667
      vertex -5.27684 -2.85568 -2.5
      vertex -5.27684 -2.85568 -1.16667
    endloop
  endfacet
  facet normal 0.78914 0.614213 0
    outer loop
      vertex -5.27684 -2.85568 -2.5
      vertex -4.06369 -4.41434 -1.16667
      vertex -4.06369 -4.41434 -2.5
    endloop
  endfacet
  facet normal -0.677282 0.735724 0
    outer loop
      vertex 4.73484 -3.68528 -2.5
      vertex 3.28169 -5.023 -1.16667
      vertex 4.73484 -3.68528 -1.16667
    endloop
  endfacet
  facet normal -0.677282 0.735724 0
    outer loop
      vertex 3.28169 -5.023 -1.16667
      vertex 4.73484 -3.68528 -2.5
      vertex 3.28169 -5.023 -2.5
    endloop
  endfacet
  facet normal -0.0825792 0.996585 0
    outer loop
      vertex 1.47291 -5.8164 -2.5
      vertex -0.495476 -5.97951 -1.16667
      vertex 1.47291 -5.8164 -1.16667
    endloop
  endfacet
  facet normal -0.0825792 0.996585 0
    outer loop
      vertex -0.495476 -5.97951 -1.16667
      vertex 1.47291 -5.8164 -2.5
      vertex -0.495476 -5.97951 -2.5
    endloop
  endfacet
  facet normal -0.879474 0.475947 0
    outer loop
      vertex 4.73484 -3.68528 -2.5
      vertex 5.6749 -1.9482 -1.16667
      vertex 5.6749 -1.9482 -2.5
    endloop
  endfacet
  facet normal -0.879474 0.475947 0
    outer loop
      vertex 5.6749 -1.9482 -1.16667
      vertex 4.73484 -3.68528 -2.5
      vertex 4.73484 -3.68528 -1.16667
    endloop
  endfacet
  facet normal -0.809017 -0.587786 0
    outer loop
      vertex 9 0 -2.5
      vertex 8.30902 0.951056 2
      vertex 8.30902 0.951056 -2.5
    endloop
  endfacet
  facet normal -0.809017 -0.587786 0
    outer loop
      vertex 8.30902 0.951056 2
      vertex 9 0 -2.5
      vertex 9 0 2
    endloop
  endfacet
  facet normal 1 -0 0
    outer loop
      vertex 7.19098 -0.587785 2
      vertex 7.19098 0.587785 -2.5
      vertex 7.19098 0.587785 2
    endloop
  endfacet
  facet normal 1 0 0
    outer loop
      vertex 7.19098 0.587785 -2.5
      vertex 7.19098 -0.587785 2
      vertex 7.19098 -0.587785 -2.5
    endloop
  endfacet
  facet normal 0.309017 -0.951056 0
    outer loop
      vertex 7.19098 0.587785 -2.5
      vertex 8.30902 0.951056 2
      vertex 7.19098 0.587785 2
    endloop
  endfacet
  facet normal 0.309017 -0.951056 0
    outer loop
      vertex 8.30902 0.951056 2
      vertex 7.19098 0.587785 -2.5
      vertex 8.30902 0.951056 -2.5
    endloop
  endfacet
  facet normal 0.309017 0.951056 -0
    outer loop
      vertex 8.30902 -0.951056 -2.5
      vertex 7.19098 -0.587785 2
      vertex 8.30902 -0.951056 2
    endloop
  endfacet
  facet normal 0.309017 0.951056 0
    outer loop
      vertex 7.19098 -0.587785 2
      vertex 8.30902 -0.951056 -2.5
      vertex 7.19098 -0.587785 -2.5
    endloop
  endfacet
  facet normal 0 0 -1
    outer loop
      vertex 8.30902 -0.951056 2
      vertex 8.30902 0.951056 2
      vertex 9 0 2
    endloop
  endfacet
  facet normal 0 0 -1
    outer loop
      vertex 7.19098 -0.587785 2
      vertex 8.30902 0.951056 2
      vertex 8.30902 -0.951056 2
    endloop
  endfacet
  facet normal 0 0 -1
    outer loop
      vertex 8.30902 0.951056 2
      vertex 7.19098 -0.587785 2
      vertex 7.19098 0.587785 2
    endloop
  endfacet
  facet normal -0.809017 0.587786 0
    outer loop
      vertex 8.30902 -0.951056 -2.5
      vertex 9 0 2
      vertex 9 0 -2.5
    endloop
  endfacet
  facet normal -0.809017 0.587786 0
    outer loop
      vertex 9 0 2
      vertex 8.30902 -0.951056 -2.5
      vertex 8.30902 -0.951056 2
    endloop
  endfacet
  facet normal -0.809017 -0.587786 0
    outer loop
      vertex 1 8 -2.5
      vertex 0.309016 8.95106 2
      vertex 0.309016 8.95106 -2.5
    endloop
  endfacet
  facet normal -0.809017 -0.587786 0
    outer loop
      vertex 0.309016 8.95106 2
      vertex 1 8 -2.5
      vertex 1 8 2
    endloop
  endfacet
  facet normal 1 -0 0
    outer loop
      vertex -0.809016 7.41221 2
      vertex -0.809016 8.58778 -2.5
      vertex -0.809016 8.58778 2
    endloop
  endfacet
  facet normal 1 0 0
    outer loop
      vertex -0.809016 8.58778 -2.5
      vertex -0.809016 7.41221 2
      vertex -0.809016 7.41221 -2.5
    endloop
  endfacet
  facet normal 0.309018 -0.951056 0
    outer loop
      vertex -0.809016 8.58778 -2.5
      vertex 0.309016 8.95106 2
      vertex -0.809016 8.58778 2
    endloop
  endfacet
  facet normal 0.309018 -0.951056 0
    outer loop
      vertex 0.309016 8.95106 2
      vertex -0.809016 8.58778 -2.5
      vertex 0.309016 8.95106 -2.5
    endloop
  endfacet
  facet normal 0.309018 0.951056 -0
    outer loop
      vertex 0.309016 7.04894 -2.5
      vertex -0.809016 7.41221 2
      vertex 0.309016 7.04894 2
    endloop
  endfacet
  facet normal 0.309018 0.951056 0
    outer loop
      vertex -0.809016 7.41221 2
      vertex 0.309016 7.04894 -2.5
      vertex -0.809016 7.41221 -2.5
    endloop
  endfacet
  facet normal 0 0 -1
    outer loop
      vertex 0.309016 7.04894 2
      vertex 0.309016 8.95106 2
      vertex 1 8 2
    endloop
  endfacet
  facet normal 0 0 -1
    outer loop
      vertex -0.809016 7.41221 2
      vertex 0.309016 8.95106 2
      vertex 0.309016 7.04894 2
    endloop
  endfacet
  facet normal 0 0 -1
    outer loop
      vertex 0.309016 8.95106 2
      vertex -0.809016 7.41221 2
      vertex -0.809016 8.58778 2
    endloop
  endfacet
  facet normal -0.809017 0.587785 0
    outer loop
      vertex 0.309016 7.04894 -2.5
      vertex 1 8 2
      vertex 1 8 -2.5
    endloop
  endfacet
  facet normal -0.809017 0.587785 0
    outer loop
      vertex 1 8 2
      vertex 0.309016 7.04894 -2.5
      vertex 0.309016 7.04894 2
    endloop
  endfacet
  facet normal -0.809017 -0.587785 0
    outer loop
      vertex -7 0 -2.5
      vertex -7.69098 0.951056 2
      vertex -7.69098 0.951056 -2.5
    endloop
  endfacet
  facet normal -0.809017 -0.587785 0
    outer loop
      vertex -7.69098 0.951056 2
      vertex -7 0 -2.5
      vertex -7 0 2
    endloop
  endfacet
  facet normal 1 -0 0
    outer loop
      vertex -8.80902 -0.587785 2
      vertex -8.80902 0.587785 -2.5
      vertex -8.80902 0.587785 2
    endloop
  endfacet
  facet normal 1 0 0
    outer loop
      vertex -8.80902 0.587785 -2.5
      vertex -8.80902 -0.587785 2
      vertex -8.80902 -0.587785 -2.5
    endloop
  endfacet
  facet normal 0.309017 -0.951056 0
    outer loop
      vertex -8.80902 0.587785 -2.5
      vertex -7.69098 0.951056 2
      vertex -8.80902 0.587785 2
    endloop
  endfacet
  facet normal 0.309017 -0.951056 0
    outer loop
      vertex -7.69098 0.951056 2
      vertex -8.80902 0.587785 -2.5
      vertex -7.69098 0.951056 -2.5
    endloop
  endfacet
  facet normal 0.309017 0.951056 -0
    outer loop
      vertex -7.69098 -0.951056 -2.5
      vertex -8.80902 -0.587785 2
      vertex -7.69098 -0.951056 2
    endloop
  endfacet
  facet normal 0.309017 0.951056 0
    outer loop
      vertex -8.80902 -0.587785 2
      vertex -7.69098 -0.951056 -2.5
      vertex -8.80902 -0.587785 -2.5
    endloop
  endfacet
  facet normal 0 0 -1
    outer loop
      vertex -7.69098 -0.951056 2
      vertex -7.69098 0.951056 2
      vertex -7 0 2
    endloop
  endfacet
  facet normal 0 0 -1
    outer loop
      vertex -8.80902 -0.587785 2
      vertex -7.69098 0.951056 2
      vertex -7.69098 -0.951056 2
    endloop
  endfacet
  facet normal 0 0 -1
    outer loop
      vertex -7.69098 0.951056 2
      vertex -8.80902 -0.587785 2
      vertex -8.80902 0.587785 2
    endloop
  endfacet
  facet normal -0.809017 0.587785 0
    outer loop
      vertex -7.69098 -0.951056 -2.5
      vertex -7 0 2
      vertex -7 0 -2.5
    endloop
  endfacet
  facet normal -0.809017 0.587785 0
    outer loop
      vertex -7 0 2
      vertex -7.69098 -0.951056 -2.5
      vertex -7.69098 -0.951056 2
    endloop
  endfacet
  facet normal -0.809017 -0.587785 0
    outer loop
      vertex 1 -8 -2.5
      vertex 0.309016 -7.04894 2
      vertex 0.309016 -7.04894 -2.5
    endloop
  endfacet
  facet normal -0.809017 -0.587785 0
    outer loop
      vertex 0.309016 -7.04894 2
      vertex 1 -8 -2.5
      vertex 1 -8 2
    endloop
  endfacet
  facet normal 1 -0 0
    outer loop
      vertex -0.809016 -8.58778 2
      vertex -0.809016 -7.41221 -2.5
      vertex -0.809016 -7.41221 2
    endloop
  endfacet
  facet normal 1 0 0
    outer loop
      vertex -0.809016 -7.41221 -2.5
      vertex -0.809016 -8.58778 2
      vertex -0.809016 -8.58778 -2.5
    endloop
  endfacet
  facet normal 0.309018 -0.951056 0
    outer loop
      vertex -0.809016 -7.41221 -2.5
      vertex 0.309016 -7.04894 2
      vertex -0.809016 -7.41221 2
    endloop
  endfacet
  facet normal 0.309018 -0.951056 0
    outer loop
      vertex 0.309016 -7.04894 2
      vertex -0.809016 -7.41221 -2.5
      vertex 0.309016 -7.04894 -2.5
    endloop
  endfacet
  facet normal 0.309018 0.951056 -0
    outer loop
      vertex 0.309016 -8.95106 -2.5
      vertex -0.809016 -8.58778 2
      vertex 0.309016 -8.95106 2
    endloop
  endfacet
  facet normal 0.309018 0.951056 0
    outer loop
      vertex -0.809016 -8.58778 2
      vertex 0.309016 -8.95106 -2.5
      vertex -0.809016 -8.58778 -2.5
    endloop
  endfacet
  facet normal 0 0 -1
    outer loop
      vertex 0.309016 -8.95106 2
      vertex 0.309016 -7.04894 2
      vertex 1 -8 2
    endloop
  endfacet
  facet normal 0 0 -1
    outer loop
      vertex -0.809016 -8.58778 2
      vertex 0.309016 -7.04894 2
      vertex 0.309016 -8.95106 2
    endloop
  endfacet
  facet normal 0 0 -1
    outer loop
      vertex 0.309016 -7.04894 2
      vertex -0.809016 -8.58778 2
      vertex -0.809016 -7.41221 2
    endloop
  endfacet
  facet normal -0.809017 0.587786 0
    outer loop
      vertex 0.309016 -8.95106 -2.5
      vertex 1 -8 2
      vertex 1 -8 -2.5
    endloop
  endfacet
  facet normal -0.809017 0.587786 0
    outer loop
      vertex 1 -8 2
      vertex 0.309016 -8.95106 -2.5
      vertex 0.309016 -8.95106 2
    endloop
  endfacet
  facet normal -0 0 1
    outer loop
      vertex -4 1 2
      vertex -2 -1 2
      vertex -2 1 2
    endloop
  endfacet
  facet normal 0 0 1
    outer loop
      vertex -2 -1 2
      vertex -4 1 2
      vertex -4 -1 2
    endloop
  endfacet
  facet normal -0 0 1
    outer loop
      vertex 2 1 2
      vertex 4 -1 2
      vertex 4 1 2
    endloop
  endfacet
  facet normal 0 0 1
    outer loop
      vertex 4 -1 2
      vertex 2 1 2
      vertex 2 -1 2
    endloop
  endfacet
  facet normal 0 1 -0
    outer loop
      vertex 4 1 -1
      vertex 2 1 2
      vertex 4 1 2
    endloop
  endfacet
  facet normal 0 1 0
    outer loop
      vertex 2 1 2
      vertex 4 1 -1
      vertex 2 1 -1
    endloop
  endfacet
  facet normal 0 1 -0
    outer loop
      vertex -2 1 -1
      vertex -4 1 2
      vertex -2 1 2
    endloop
  endfacet
  facet normal 0 1 0
    outer loop
      vertex -4 1 2
      vertex -2 1 -1
      vertex -4 1 -1
    endloop
  endfacet
  facet normal 0 0 -1
    outer loop
      vertex -4 -1 -1
      vertex -2 1 -1
      vertex -2 -1 -1
    endloop
  endfacet
  facet normal -0 0 -1
    outer loop
      vertex -2 1 -1
      vertex -4 -1 -1
      vertex -4 1 -1
    endloop
  endfacet
  facet normal 0 0 -1
    outer loop
      vertex 2 -1 -1
      vertex 4 1 -1
      vertex 4 -1 -1
    endloop
  endfacet
  facet normal -0 0 -1
    outer loop
      vertex 4 1 -1
      vertex 2 -1 -1
      vertex 2 1 -1
    endloop
  endfacet
  facet normal 0 -1 0
    outer loop
      vertex -4 -1 -1
      vertex -2 -1 2
      vertex -4 -1 2
    endloop
  endfacet
  facet normal 0 -1 -0
    outer loop
      vertex -2 -1 2
      vertex -4 -1 -1
      vertex -2 -1 -1
    endloop
  endfacet
  facet normal 0 -1 0
    outer loop
      vertex 2 -1 -1
      vertex 4 -1 2
      vertex 2 -1 2
    endloop
  endfacet
  facet normal 0 -1 -0
    outer loop
      vertex 4 -1 2
      vertex 2 -1 -1
      vertex 4 -1 -1
    endloop
  endfacet
  facet normal 1 -0 0
    outer loop
      vertex -2 -1 2
      vertex -2 1 -1
      vertex -2 1 2
    endloop
  endfacet
  facet normal 1 0 0
    outer loop
      vertex -2 1 -1
      vertex -2 -1 2
      vertex -2 -1 -1
    endloop
  endfacet
  facet normal -1 0 0
    outer loop
      vertex 2 -1 -1
      vertex 2 1 2
      vertex 2 1 -1
    endloop
  endfacet
  facet normal -1 -0 0
    outer loop
      vertex 2 1 2
      vertex 2 -1 -1
      vertex 2 -1 2
    endloop
  endfacet
endsolid OpenSCAD_Model
